<svg id="Layer_1" data-name="Layer 1" xmlns="http://www.w3.org/2000/svg" viewBox="0 0 128 124.84"><defs><style>.cls-1,.cls-2{fill:#fff;}.cls-1{fill-rule:evenodd;}</style></defs><path class="cls-1" d="M64,1.58A64,64,0,0,0,43.77,126.31c3.2.59,4.37-1.39,4.37-3.08,0-1.52-.06-6.57-.09-11.92-17.8,3.88-21.56-7.55-21.56-7.55-2.91-7.39-7.1-9.36-7.1-9.36-5.81-4,.43-3.89.43-3.89,6.43.45,9.81,6.59,9.81,6.59,5.71,9.79,15,7,18.63,5.32.57-4.13,2.23-7,4.06-8.55-14.21-1.62-29.16-7.11-29.16-31.63a24.74,24.74,0,0,1,6.6-17.18c-.67-1.61-2.86-8.12.62-16.94,0,0,5.37-1.72,17.6,6.56a60.8,60.8,0,0,1,32.05,0c12.22-8.28,17.59-6.56,17.59-6.56,3.48,8.82,1.29,15.33.62,16.94a24.69,24.69,0,0,1,6.59,17.18c0,24.58-15,30-29.22,31.58C77.9,95.8,80,99.7,80,105.67c0,8.56-.08,15.45-.08,17.56,0,1.7,1.16,3.7,4.4,3.07A64,64,0,0,0,64,1.58Z" transform="translate(0 -1.58)"/><path class="cls-2" d="M24.24,93.47c-.14.32-.64.41-1.1.2s-.72-.65-.57-1,.64-.41,1.1-.2.73.65.57,1Zm-.79-.58" transform="translate(0 -1.58)"/><path class="cls-2" d="M26.83,96.36c-.3.28-.9.15-1.3-.29s-.5-1-.19-1.33.89-.15,1.31.29.5,1,.18,1.33Zm-.61-.65" transform="translate(0 -1.58)"/><path class="cls-2" d="M29.36,100.05c-.4.27-1,0-1.43-.55s-.4-1.26,0-1.53,1,0,1.43.54.39,1.26,0,1.54Zm0,0" transform="translate(0 -1.58)"/><path class="cls-2" d="M32.81,103.61c-.35.39-1.1.28-1.64-.25s-.72-1.25-.37-1.63,1.11-.28,1.66.24.73,1.26.35,1.64Zm0,0" transform="translate(0 -1.58)"/><path class="cls-2" d="M37.58,105.68c-.15.5-.87.72-1.6.51s-1.19-.8-1-1.31.88-.74,1.6-.52,1.2.81,1,1.32Zm0,0" transform="translate(0 -1.58)"/><path class="cls-2" d="M42.82,106.06c0,.53-.6,1-1.36,1s-1.38-.41-1.39-.93.6-1,1.37-1,1.38.41,1.38.93Zm0,0" transform="translate(0 -1.58)"/></svg>